{"asset":{"generator":"Khronos glTF Blender I/O v4.2.57","version":"2.0","extras":{"simplified":true}},"scene":0,"scenes":[{"name":"Scene","nodes":[0,1,2,3,4]}],"nodes":[{"mesh":0,"name":"namaqualand_stones_01_a"},{"mesh":1,"name":"namaqualand_stones_01_b"},{"mesh":2,"name":"namaqualand_stones_01_c"},{"mesh":3,"name":"namaqualand_stones_01_d"},{"mesh":4,"name":"namaqualand_stones_01_e"}],"materials":[{"doubleSided":true,"name":"namaqualand_stones_01","normalTexture":{"index":0},"pbrMetallicRoughness":{"baseColorTexture":{"index":1},"metallicFactor":0,"metallicRoughnessTexture":{"index":2}}}],"meshes":[{"name":"realCap_Model_2.005","primitives":[{"attributes":{"POSITION":0,"NORMAL":1,"TEXCOORD_0":2},"indices":3,"material":0}]},{"name":"realCap_Model_2.003","primitives":[{"attributes":{"POSITION":4,"NORMAL":5,"TEXCOORD_0":6},"indices":7,"material":0}]},{"name":"realCap_Model_2.002","primitives":[{"attributes":{"POSITION":8,"NORMAL":9,"TEXCOORD_0":10},"indices":11,"material":0}]},{"name":"realCap_Model_2.004","primitives":[{"attributes":{"POSITION":12,"NORMAL":13,"TEXCOORD_0":14},"indices":15,"material":0}]},{"name":"realCap_Model_2.001","primitives":[{"attributes":{"POSITION":16,"NORMAL":17,"TEXCOORD_0":18},"indices":19,"material":0}]}],"textures":[{"sampler":0,"source":0},{"sampler":0,"source":1},{"sampler":0,"source":2}],"images":[{"mimeType":"image/jpeg","name":"namaqualand_stones_01_nor_gl","uri":"textures/namaqualand_stones_01_nor_gl_1k.jpg"},{"mimeType":"image/jpeg","name":"namaqualand_stones_01_diff","uri":"textures/namaqualand_stones_01_diff_1k.jpg"},{"mimeType":"image/jpeg","name":"namaqualand_stones_01_rough","uri":"textures/namaqualand_stones_01_arm_1k.jpg"}],"accessors":[{"bufferView":0,"componentType":5126,"count":510,"max":[-0.8653140068054199,0.03695181757211685,0.03319914638996124],"min":[-0.9415408968925476,-0.0004105325788259506,-0.02947266772389412],"type":"VEC3"},{"bufferView":1,"componentType":5126,"count":510,"type":"VEC3"},{"bufferView":2,"componentType":5126,"count":510,"type":"VEC2"},{"bufferView":3,"componentType":5123,"count":2586,"type":"SCALAR"},{"bufferView":4,"componentType":5126,"count":221,"max":[-0.5967025756835938,0.07964816689491272,0.046643227338790894],"min":[-0.7445627450942993,-0.0019226036965847015,-0.03341260179877281],"type":"VEC3"},{"bufferView":5,"componentType":5126,"count":221,"type":"VEC3"},{"bufferView":6,"componentType":5126,"count":221,"type":"VEC2"},{"bufferView":7,"componentType":5123,"count":966,"type":"SCALAR"},{"bufferView":8,"componentType":5126,"count":432,"max":[-0.36831581592559814,0.054651591926813126,0.04060520976781845],"min":[-0.4705745279788971,-0.0011358601041138172,-0.05587785318493843],"type":"VEC3"},{"bufferView":9,"componentType":5126,"count":432,"type":"VEC3"},{"bufferView":10,"componentType":5126,"count":432,"type":"VEC2"},{"bufferView":11,"componentType":5123,"count":2112,"type":"SCALAR"},{"bufferView":12,"componentType":5126,"count":167,"max":[-0.1499277949333191,0.03417818993330002,0.03940926492214203],"min":[-0.2618086636066437,0.0007300201687030494,-0.042409446090459824],"type":"VEC3"},{"bufferView":13,"componentType":5126,"count":167,"type":"VEC3"},{"bufferView":14,"componentType":5126,"count":167,"type":"VEC2"},{"bufferView":15,"componentType":5123,"count":624,"type":"SCALAR"},{"bufferView":16,"componentType":5126,"count":279,"max":[0.0803217887878418,0.07643163204193115,0.05437595397233963],"min":[-0.03003978729248047,0.0005882978439331055,-0.057329125702381134],"type":"VEC3"},{"bufferView":17,"componentType":5126,"count":279,"type":"VEC3"},{"bufferView":18,"componentType":5126,"count":279,"type":"VEC2"},{"bufferView":19,"componentType":5123,"count":1188,"type":"SCALAR"}],"bufferViews":[{"buffer":0,"byteOffset":0,"byteLength":6120,"target":34962},{"buffer":0,"byteOffset":6120,"byteLength":6120,"target":34962},{"buffer":0,"byteOffset":12240,"byteLength":4080,"target":34962},{"buffer":0,"byteOffset":16320,"byteLength":5172,"target":34963},{"buffer":0,"byteOffset":21492,"byteLength":2652,"target":34962},{"buffer":0,"byteOffset":24144,"byteLength":2652,"target":34962},{"buffer":0,"byteOffset":26796,"byteLength":1768,"target":34962},{"buffer":0,"byteOffset":28564,"byteLength":1932,"target":34963},{"buffer":0,"byteOffset":30496,"byteLength":5184,"target":34962},{"buffer":0,"byteOffset":35680,"byteLength":5184,"target":34962},{"buffer":0,"byteOffset":40864,"byteLength":3456,"target":34962},{"buffer":0,"byteOffset":44320,"byteLength":4224,"target":34963},{"buffer":0,"byteOffset":48544,"byteLength":2004,"target":34962},{"buffer":0,"byteOffset":50548,"byteLength":2004,"target":34962},{"buffer":0,"byteOffset":52552,"byteLength":1336,"target":34962},{"buffer":0,"byteOffset":53888,"byteLength":1248,"target":34963},{"buffer":0,"byteOffset":55136,"byteLength":3348,"target":34962},{"buffer":0,"byteOffset":58484,"byteLength":3348,"target":34962},{"buffer":0,"byteOffset":61832,"byteLength":2232,"target":34962},{"buffer":0,"byteOffset":64064,"byteLength":2376,"target":34963}],"samplers":[{"magFilter":9729,"minFilter":9987}],"buffers":[{"byteLength":66440,"uri":"namaqualand_stones_01.bin"}]}