{"asset":{"generator":"Khronos glTF Blender I/O v4.0.44","version":"2.0","extras":{"simplified":true}},"scene":0,"scenes":[{"name":"Scene","nodes":[0,1]}],"nodes":[{"mesh":0,"name":"security_light"},{"mesh":1,"name":"security_light_glass"}],"materials":[{"doubleSided":true,"name":"security_light","normalTexture":{"index":0},"pbrMetallicRoughness":{"baseColorTexture":{"index":1},"metallicRoughnessTexture":{"index":2}}},{"doubleSided":true,"name":"security_light_bulb","normalTexture":{"index":3},"pbrMetallicRoughness":{"baseColorTexture":{"index":4},"metallicRoughnessTexture":{"index":5}}},{"alphaMode":"BLEND","doubleSided":true,"name":"security_light_glass","normalTexture":{"index":6},"pbrMetallicRoughness":{"baseColorTexture":{"index":7},"metallicRoughnessTexture":{"index":8}}}],"meshes":[{"name":"join.013","primitives":[{"attributes":{"POSITION":0,"NORMAL":1,"TEXCOORD_0":2},"indices":3,"material":0},{"attributes":{"POSITION":4,"NORMAL":5,"TEXCOORD_0":6},"indices":7,"material":1}]},{"name":"join.001","primitives":[{"attributes":{"POSITION":8,"NORMAL":9,"TEXCOORD_0":10},"indices":11,"material":2}]}],"textures":[{"sampler":0,"source":0},{"sampler":0,"source":1},{"sampler":0,"source":2},{"sampler":0,"source":0},{"sampler":0,"source":1},{"sampler":0,"source":2},{"sampler":0,"source":0},{"sampler":0,"source":3},{"sampler":0,"source":2}],"images":[{"mimeType":"image/jpeg","name":"security_light_nor_gl","uri":"textures/security_light_nor_gl_1k.jpg"},{"mimeType":"image/jpeg","name":"security_light_diff","uri":"textures/security_light_diff_1k.jpg"},{"mimeType":"image/jpeg","name":"security_light_metal-security_light_rough","uri":"textures/security_light_arm_1k.jpg"},{"mimeType":"image/jpeg","name":"security_light_diff-security_light_alpha","uri":"textures/security_light_diff_1k.jpg"}],"accessors":[{"bufferView":0,"componentType":5126,"count":1218,"max":[0.16117645800113678,0.1716388761997223,0.3860390782356262],"min":[-0.16196827590465546,-0.1688007265329361,-0.023691996932029724],"type":"VEC3"},{"bufferView":1,"componentType":5126,"count":1218,"type":"VEC3"},{"bufferView":2,"componentType":5126,"count":1218,"type":"VEC2"},{"bufferView":3,"componentType":5123,"count":3804,"type":"SCALAR"},{"bufferView":4,"componentType":5126,"count":118,"max":[0.020090434700250626,-0.08352166414260864,0.24218186736106873],"min":[-0.018516305834054947,-0.2396848499774933,0.20263086259365082],"type":"VEC3"},{"bufferView":5,"componentType":5126,"count":118,"type":"VEC3"},{"bufferView":6,"componentType":5126,"count":118,"type":"VEC2"},{"bufferView":7,"componentType":5123,"count":432,"type":"SCALAR"},{"bufferView":8,"componentType":5126,"count":82,"max":[0.15179453790187836,-0.16647377610206604,0.37393301725387573],"min":[-0.15023645758628845,-0.35933777689933777,0.07190102338790894],"type":"VEC3"},{"bufferView":9,"componentType":5126,"count":82,"type":"VEC3"},{"bufferView":10,"componentType":5126,"count":82,"type":"VEC2"},{"bufferView":11,"componentType":5123,"count":282,"type":"SCALAR"}],"bufferViews":[{"buffer":0,"byteOffset":0,"byteLength":14616,"target":34962},{"buffer":0,"byteOffset":14616,"byteLength":14616,"target":34962},{"buffer":0,"byteOffset":29232,"byteLength":9744,"target":34962},{"buffer":0,"byteOffset":38976,"byteLength":7608,"target":34963},{"buffer":0,"byteOffset":46584,"byteLength":1416,"target":34962},{"buffer":0,"byteOffset":48000,"byteLength":1416,"target":34962},{"buffer":0,"byteOffset":49416,"byteLength":944,"target":34962},{"buffer":0,"byteOffset":50360,"byteLength":864,"target":34963},{"buffer":0,"byteOffset":51224,"byteLength":984,"target":34962},{"buffer":0,"byteOffset":52208,"byteLength":984,"target":34962},{"buffer":0,"byteOffset":53192,"byteLength":656,"target":34962},{"buffer":0,"byteOffset":53848,"byteLength":564,"target":34963}],"samplers":[{"magFilter":9729,"minFilter":9987}],"buffers":[{"byteLength":54412,"uri":"security_light.bin"}]}