{"asset":{"generator":"Khronos glTF Blender I/O v4.2.57","version":"2.0","extras":{"simplified":true}},"scene":0,"scenes":[{"name":"Scene","nodes":[0]}],"nodes":[{"mesh":0,"name":"quiver_tree_02"}],"materials":[{"doubleSided":true,"name":"quiver_tree_02","normalTexture":{"index":0},"pbrMetallicRoughness":{"baseColorTexture":{"index":1},"metallicFactor":0,"metallicRoughnessTexture":{"index":2}}}],"meshes":[{"name":"tree_small_25m","primitives":[{"attributes":{"POSITION":0,"NORMAL":1,"TEXCOORD_0":2},"indices":3,"material":0}]}],"textures":[{"sampler":0,"source":0},{"sampler":0,"source":1},{"sampler":0,"source":2}],"images":[{"mimeType":"image/jpeg","name":"quiver_tree_02_nor_gl","uri":"textures/quiver_tree_02_nor_gl_1k.jpg"},{"mimeType":"image/jpeg","name":"quiver_tree_02_diff","uri":"textures/quiver_tree_02_diff_1k.jpg"},{"mimeType":"image/jpeg","name":"quiver_tree_02_rough","uri":"textures/quiver_tree_02_arm_1k.jpg"}],"accessors":[{"bufferView":0,"componentType":5126,"count":4130,"max":[0.3827550709247589,1.4177615642547607,0.44688940048217773],"min":[-0.4823300242424011,-0.049302227795124054,-0.4232483506202698],"type":"VEC3"},{"bufferView":1,"componentType":5126,"count":4130,"type":"VEC3"},{"bufferView":2,"componentType":5126,"count":4130,"type":"VEC2"},{"bufferView":3,"componentType":5123,"count":15000,"type":"SCALAR"}],"bufferViews":[{"buffer":0,"byteOffset":0,"byteLength":49560,"target":34962},{"buffer":0,"byteOffset":49560,"byteLength":49560,"target":34962},{"buffer":0,"byteOffset":99120,"byteLength":33040,"target":34962},{"buffer":0,"byteOffset":132160,"byteLength":30000,"target":34963}],"samplers":[{"magFilter":9729,"minFilter":9987}],"buffers":[{"byteLength":162160,"uri":"quiver_tree_02.bin"}]}