{"asset":{"generator":"Khronos glTF Blender I/O v5.1.20","version":"2.0","extras":{"simplified":true}},"scene":0,"scenes":[{"name":"Scene","nodes":[0]}],"nodes":[{"mesh":0,"name":"trashbag"}],"materials":[{"doubleSided":true,"name":"trashbag","normalTexture":{"index":0},"pbrMetallicRoughness":{"baseColorTexture":{"index":1},"metallicFactor":0,"metallicRoughnessTexture":{"index":2}}}],"meshes":[{"name":"Plane.006","primitives":[{"attributes":{"POSITION":0,"NORMAL":1,"TEXCOORD_0":2},"indices":3,"material":0}]}],"textures":[{"sampler":0,"source":0},{"sampler":0,"source":1},{"sampler":0,"source":2}],"images":[{"mimeType":"image/jpeg","name":"trashbag_nor_gl","uri":"textures/trashbag_nor_gl_1k.jpg"},{"mimeType":"image/jpeg","name":"trashbag_diff","uri":"textures/trashbag_diff_1k.jpg"},{"mimeType":"image/jpeg","name":"trashbag_rough","uri":"textures/trashbag_arm_1k.jpg"}],"accessors":[{"bufferView":0,"componentType":5126,"count":1055,"max":[0.2631056308746338,0.5716423988342285,0.22307318449020386],"min":[-0.2604704797267914,-0.0014488622546195984,-0.23981982469558716],"type":"VEC3"},{"bufferView":1,"componentType":5126,"count":1055,"type":"VEC3"},{"bufferView":2,"componentType":5126,"count":1055,"type":"VEC2"},{"bufferView":3,"componentType":5123,"count":5400,"type":"SCALAR"}],"bufferViews":[{"buffer":0,"byteOffset":0,"byteLength":12660,"target":34962},{"buffer":0,"byteOffset":12660,"byteLength":12660,"target":34962},{"buffer":0,"byteOffset":25320,"byteLength":8440,"target":34962},{"buffer":0,"byteOffset":33760,"byteLength":10800,"target":34963}],"samplers":[{"magFilter":9729,"minFilter":9987}],"buffers":[{"byteLength":44560,"uri":"trashbag.bin"}]}