{"asset":{"generator":"Khronos glTF Blender I/O v3.6.27","version":"2.0","extras":{"simplified":true}},"extensionsUsed":["KHR_materials_specular","KHR_materials_ior"],"scene":0,"scenes":[{"name":"Scene","nodes":[0,1,2,3,4]}],"nodes":[{"mesh":0,"name":"covered_car_wheel_01","translation":[0.7576000690460205,0.30000001192092896,1.2806000709533691]},{"mesh":1,"name":"covered_car_wheel_02","translation":[-0.6823999881744385,0.30000001192092896,1.2806000709533691]},{"mesh":2,"name":"covered_car_wheel_03","translation":[-0.6724001169204712,0.30000001192092896,-1.299399971961975]},{"mesh":3,"name":"covered_car_wheel_04","translation":[0.7475999593734741,0.30000001192092896,-1.2993998527526855]},{"mesh":4,"name":"covered_car","translation":[0.037599992007017136,0,0.037599992007017136]}],"materials":[{"doubleSided":true,"extensions":{"KHR_materials_specular":{"specularColorFactor":[0.711407312601205,0.711407312601205,0.711407312601205]},"KHR_materials_ior":{"ior":1.4500000476837158}},"name":"covered_car","normalTexture":{"index":0},"pbrMetallicRoughness":{"baseColorTexture":{"index":1},"metallicRoughnessTexture":{"index":2}}},{"doubleSided":true,"extensions":{"KHR_materials_specular":{"specularColorFactor":[0.711407312601205,0.711407312601205,0.711407312601205]},"KHR_materials_ior":{"ior":1.4500000476837158}},"name":"covered_car","normalTexture":{"index":3},"pbrMetallicRoughness":{"baseColorTexture":{"index":4},"metallicRoughnessTexture":{"index":5}}}],"meshes":[{"name":"wheel_01","primitives":[{"attributes":{"POSITION":0,"NORMAL":1,"TEXCOORD_0":2},"indices":3,"material":0}]},{"name":"wheel_02","primitives":[{"attributes":{"POSITION":4,"NORMAL":5,"TEXCOORD_0":6},"indices":7,"material":1}]},{"name":"wheel_03","primitives":[{"attributes":{"POSITION":8,"NORMAL":9,"TEXCOORD_0":10},"indices":7,"material":1}]},{"name":"wheel_04","primitives":[{"attributes":{"POSITION":11,"NORMAL":12,"TEXCOORD_0":13},"indices":3,"material":0}]},{"name":"car_cover","primitives":[{"attributes":{"POSITION":14,"NORMAL":15,"TEXCOORD_0":16},"indices":17,"material":1}]}],"textures":[{"sampler":0,"source":0},{"sampler":0,"source":1},{"sampler":0,"source":2},{"sampler":0,"source":0},{"sampler":0,"source":1},{"sampler":0,"source":2}],"images":[{"mimeType":"image/jpeg","name":"covered_car_nor_gl","uri":"textures/covered_car_nor_gl_2k.jpg"},{"mimeType":"image/jpeg","name":"covered_car_diff","uri":"textures/covered_car_diff_2k.jpg"},{"mimeType":"image/jpeg","name":"covered_car_metal-covered_car_rough","uri":"textures/covered_car_arm_2k.jpg"}],"accessors":[{"bufferView":0,"componentType":5126,"count":723,"max":[0.08055773377418518,0.2923468351364136,0.29234686493873596],"min":[-0.08046972006559372,-0.2936018705368042,-0.2923468351364136],"type":"VEC3"},{"bufferView":1,"componentType":5126,"count":723,"type":"VEC3"},{"bufferView":2,"componentType":5126,"count":723,"type":"VEC2"},{"bufferView":3,"componentType":5123,"count":930,"type":"SCALAR"},{"bufferView":4,"componentType":5126,"count":623,"max":[0.08046963810920715,0.2944614887237549,0.29446151852607727],"min":[-0.08055765181779861,-0.2888035774230957,-0.29446151852607727],"type":"VEC3"},{"bufferView":5,"componentType":5126,"count":623,"type":"VEC3"},{"bufferView":6,"componentType":5126,"count":623,"type":"VEC2"},{"bufferView":7,"componentType":5123,"count":666,"type":"SCALAR"},{"bufferView":8,"componentType":5126,"count":247,"max":[0.06264205276966095,0.18759751319885254,0.07390101253986359],"min":[-0.0703352689743042,-0.1720108538866043,-0.18759699165821075],"type":"VEC3"},{"bufferView":9,"componentType":5126,"count":247,"type":"VEC3"},{"bufferView":10,"componentType":5126,"count":247,"type":"VEC2"},{"bufferView":11,"componentType":5126,"count":341,"max":[0.0703352689743042,0.18760234117507935,0.187605619430542],"min":[-0.06264203786849976,-0.18760466575622559,-0.07129748910665512],"type":"VEC3"},{"bufferView":12,"componentType":5126,"count":341,"type":"VEC3"},{"bufferView":13,"componentType":5126,"count":341,"type":"VEC2"},{"bufferView":14,"componentType":5126,"count":2109,"max":[0.8960397839546204,1.3842843770980835,2.1556499004364014],"min":[-0.8638191223144531,0.1257612705230713,-2.199481964111328],"type":"VEC3"},{"bufferView":15,"componentType":5126,"count":2109,"type":"VEC3"},{"bufferView":16,"componentType":5126,"count":2109,"type":"VEC2"},{"bufferView":17,"componentType":5123,"count":4614,"type":"SCALAR"}],"bufferViews":[{"buffer":0,"byteOffset":0,"byteLength":8676,"target":34962},{"buffer":0,"byteOffset":8676,"byteLength":8676,"target":34962},{"buffer":0,"byteOffset":17352,"byteLength":5784,"target":34962},{"buffer":0,"byteOffset":23136,"byteLength":1860,"target":34963},{"buffer":0,"byteOffset":24996,"byteLength":7476,"target":34962},{"buffer":0,"byteOffset":32472,"byteLength":7476,"target":34962},{"buffer":0,"byteOffset":39948,"byteLength":4984,"target":34962},{"buffer":0,"byteOffset":44932,"byteLength":1332,"target":34963},{"buffer":0,"byteOffset":46264,"byteLength":2964,"target":34962},{"buffer":0,"byteOffset":49228,"byteLength":2964,"target":34962},{"buffer":0,"byteOffset":52192,"byteLength":1976,"target":34962},{"buffer":0,"byteOffset":54168,"byteLength":4092,"target":34962},{"buffer":0,"byteOffset":58260,"byteLength":4092,"target":34962},{"buffer":0,"byteOffset":62352,"byteLength":2728,"target":34962},{"buffer":0,"byteOffset":65080,"byteLength":25308,"target":34962},{"buffer":0,"byteOffset":90388,"byteLength":25308,"target":34962},{"buffer":0,"byteOffset":115696,"byteLength":16872,"target":34962},{"buffer":0,"byteOffset":132568,"byteLength":9228,"target":34963}],"samplers":[{"magFilter":9729,"minFilter":9987}],"buffers":[{"byteLength":141796,"uri":"covered_car.bin"}]}