{"asset":{"generator":"Khronos glTF Blender I/O v5.1.18","version":"2.0","extras":{"simplified":true}},"scene":0,"scenes":[{"name":"Scene","nodes":[0]}],"nodes":[{"mesh":0,"name":"propane_tank"}],"materials":[{"name":"propane_tank","normalTexture":{"index":0},"pbrMetallicRoughness":{"baseColorTexture":{"index":1},"metallicRoughnessTexture":{"index":2}}}],"meshes":[{"name":"Circle","primitives":[{"attributes":{"POSITION":0,"NORMAL":1,"TEXCOORD_0":2},"indices":3,"material":0}]}],"textures":[{"sampler":0,"source":0},{"sampler":0,"source":1},{"sampler":0,"source":2}],"images":[{"mimeType":"image/jpeg","name":"propane_tank_nor_gl","uri":"textures/propane_tank_nor_gl_1k.jpg"},{"mimeType":"image/jpeg","name":"propane_tank_diff","uri":"textures/propane_tank_diff_1k.jpg"},{"mimeType":"image/jpeg","name":"propane_tank_metal-propane_tank_rough","uri":"textures/propane_tank_arm_1k.jpg"}],"accessors":[{"bufferView":0,"componentType":5126,"count":1503,"max":[0.1671988070011139,0.5537275075912476,0.1671988070011139],"min":[-0.1671988070011139,0.00002718903124332428,-0.1671988070011139],"type":"VEC3"},{"bufferView":1,"componentType":5126,"count":1503,"type":"VEC3"},{"bufferView":2,"componentType":5126,"count":1503,"type":"VEC2"},{"bufferView":3,"componentType":5123,"count":4500,"type":"SCALAR"}],"bufferViews":[{"buffer":0,"byteOffset":0,"byteLength":18036,"target":34962},{"buffer":0,"byteOffset":18036,"byteLength":18036,"target":34962},{"buffer":0,"byteOffset":36072,"byteLength":12024,"target":34962},{"buffer":0,"byteOffset":48096,"byteLength":9000,"target":34963}],"samplers":[{"magFilter":9729,"minFilter":9987}],"buffers":[{"byteLength":57096,"uri":"propane_tank.bin"}]}