{"asset":{"generator":"Khronos glTF Blender I/O v5.1.18","version":"2.0","extras":{"simplified":true}},"scene":0,"scenes":[{"name":"Scene","nodes":[0]}],"nodes":[{"mesh":0,"name":"metal_jerrycan"}],"materials":[{"doubleSided":true,"name":"metal_jerrycan","normalTexture":{"index":0},"pbrMetallicRoughness":{"baseColorTexture":{"index":1},"metallicRoughnessTexture":{"index":2}}}],"meshes":[{"name":"Cube.001","primitives":[{"attributes":{"POSITION":0,"NORMAL":1,"TEXCOORD_0":2},"indices":3,"material":0}]}],"textures":[{"sampler":0,"source":0},{"sampler":0,"source":1},{"sampler":0,"source":2}],"images":[{"mimeType":"image/jpeg","name":"metal_jerrycan_nor_gl","uri":"textures/metal_jerrycan_nor_gl_1k.jpg"},{"mimeType":"image/jpeg","name":"metal_jerrycan_diff","uri":"textures/metal_jerrycan_diff_1k.jpg"},{"mimeType":"image/jpeg","name":"metal_jerrycan_metal-metal_jerrycan_rough","uri":"textures/metal_jerrycan_arm_1k.jpg"}],"accessors":[{"bufferView":0,"componentType":5126,"count":1442,"max":[0.1801520735025406,0.45459672808647156,0.08302787691354752],"min":[-0.1701418161392212,0.000014357990949065425,-0.08861255645751953],"type":"VEC3"},{"bufferView":1,"componentType":5126,"count":1442,"type":"VEC3"},{"bufferView":2,"componentType":5126,"count":1442,"type":"VEC2"},{"bufferView":3,"componentType":5123,"count":6000,"type":"SCALAR"}],"bufferViews":[{"buffer":0,"byteOffset":0,"byteLength":17304,"target":34962},{"buffer":0,"byteOffset":17304,"byteLength":17304,"target":34962},{"buffer":0,"byteOffset":34608,"byteLength":11536,"target":34962},{"buffer":0,"byteOffset":46144,"byteLength":12000,"target":34963}],"samplers":[{"magFilter":9729,"minFilter":9987}],"buffers":[{"byteLength":58144,"uri":"metal_jerrycan.bin"}]}