{"asset":{"generator":"Khronos glTF Blender I/O v3.6.27","version":"2.0","extras":{"simplified":true}},"scene":0,"scenes":[{"name":"Scene","nodes":[0]}],"nodes":[{"mesh":0,"name":"concrete_road_barrier_02"}],"materials":[{"doubleSided":true,"name":"concrete_road_barrier_02","normalTexture":{"index":0},"pbrMetallicRoughness":{"baseColorTexture":{"index":1},"metallicFactor":0,"metallicRoughnessTexture":{"index":2}}}],"meshes":[{"name":"Concrete_Road_Barrier_02_LOD00","primitives":[{"attributes":{"POSITION":0,"NORMAL":1,"TEXCOORD_0":2},"indices":3,"material":0}]}],"textures":[{"sampler":0,"source":0},{"sampler":0,"source":1},{"sampler":0,"source":2}],"images":[{"mimeType":"image/jpeg","name":"concrete_road_barrier_02_nor_gl","uri":"textures/concrete_road_barrier_02_nor_gl_2k.jpg"},{"mimeType":"image/jpeg","name":"concrete_road_barrier_02_diff","uri":"textures/concrete_road_barrier_02_diff_2k.jpg"},{"mimeType":"image/jpeg","name":"concrete_road_barrier_02_rough","uri":"textures/concrete_road_barrier_02_arm_2k.jpg"}],"accessors":[{"bufferView":0,"componentType":5126,"count":5450,"max":[0.7892323732376099,1.1088035106658936,0.18809300661087036],"min":[-0.775420606136322,-0.0027944163884967566,-0.2540489733219147],"type":"VEC3"},{"bufferView":1,"componentType":5126,"count":5450,"type":"VEC3"},{"bufferView":2,"componentType":5126,"count":5450,"type":"VEC2"},{"bufferView":3,"componentType":5123,"count":30000,"type":"SCALAR"}],"bufferViews":[{"buffer":0,"byteOffset":0,"byteLength":65400,"target":34962},{"buffer":0,"byteOffset":65400,"byteLength":65400,"target":34962},{"buffer":0,"byteOffset":130800,"byteLength":43600,"target":34962},{"buffer":0,"byteOffset":174400,"byteLength":60000,"target":34963}],"samplers":[{"magFilter":9729,"minFilter":9987}],"buffers":[{"byteLength":234400,"uri":"concrete_road_barrier_02.bin"}]}