{"asset":{"generator":"Khronos glTF Blender I/O v5.1.20","version":"2.0","extras":{"simplified":true}},"scene":0,"scenes":[{"name":"Scene","nodes":[0,1,2,3,4]}],"nodes":[{"mesh":0,"name":"medical_box_latch","translation":[0,0.05740829184651375,0.16993090510368347]},{"mesh":1,"name":"medical_box_latch_rings","translation":[0,0.03510414808988571,0.17115692794322968]},{"mesh":2,"name":"medical_box_lid","translation":[0,0.06554923951625824,-0.16924864053726196]},{"mesh":3,"name":"medical_box"},{"mesh":4,"name":"medical_box_handle","translation":[0,0.04422575235366821,0.1691111922264099]}],"materials":[{"doubleSided":true,"name":"medical_box","normalTexture":{"index":0},"pbrMetallicRoughness":{"baseColorTexture":{"index":1},"metallicRoughnessTexture":{"index":2}}}],"meshes":[{"name":"Cylinder.007","primitives":[{"attributes":{"POSITION":0,"NORMAL":1,"TEXCOORD_0":2},"indices":3,"material":0}]},{"name":"Circle.005","primitives":[{"attributes":{"POSITION":4,"NORMAL":5,"TEXCOORD_0":6},"indices":7,"material":0}]},{"name":"Plane.002","primitives":[{"attributes":{"POSITION":8,"NORMAL":9,"TEXCOORD_0":10},"indices":11,"material":0}]},{"name":"Plane","primitives":[{"attributes":{"POSITION":12,"NORMAL":13,"TEXCOORD_0":14},"indices":15,"material":0}]},{"name":"Plane.001","primitives":[{"attributes":{"POSITION":16,"NORMAL":17,"TEXCOORD_0":18},"indices":19,"material":0}]}],"textures":[{"sampler":0,"source":0},{"sampler":0,"source":1},{"sampler":0,"source":2}],"images":[{"mimeType":"image/jpeg","name":"medical_box_nor_gl","uri":"textures/medical_box_nor_gl_1k.jpg"},{"mimeType":"image/jpeg","name":"medical_box_diff","uri":"textures/medical_box_diff_1k.jpg"},{"mimeType":"image/jpeg","name":"medical_box_metal-medical_box_rough","uri":"textures/medical_box_arm_1k.jpg"}],"accessors":[{"bufferView":0,"componentType":5126,"count":302,"max":[0.17246168851852417,0.0033796154893934727,0.003937479108572006],"min":[-0.17246168851852417,-0.04141842946410179,-0.003331138286739588],"type":"VEC3"},{"bufferView":1,"componentType":5126,"count":302,"type":"VEC3"},{"bufferView":2,"componentType":5126,"count":302,"type":"VEC2"},{"bufferView":3,"componentType":5123,"count":810,"type":"SCALAR"},{"bufferView":4,"componentType":5126,"count":133,"max":[0.17576447129249573,0.031838309019804,0.0037464387714862823],"min":[-0.17576444149017334,-0.0009233352611772716,-0.0009433215600438416],"type":"VEC3"},{"bufferView":5,"componentType":5126,"count":133,"type":"VEC3"},{"bufferView":6,"componentType":5126,"count":133,"type":"VEC2"},{"bufferView":7,"componentType":5123,"count":414,"type":"SCALAR"},{"bufferView":8,"componentType":5126,"count":331,"max":[0.26274073123931885,0.031962908804416656,0.34709420800209045],"min":[-0.26274073123931885,-0.001323453150689602,0.00007864832878112793],"type":"VEC3"},{"bufferView":9,"componentType":5126,"count":331,"type":"VEC3"},{"bufferView":10,"componentType":5126,"count":331,"type":"VEC2"},{"bufferView":11,"componentType":5123,"count":906,"type":"SCALAR"},{"bufferView":12,"componentType":5126,"count":532,"max":[0.25836989283561707,0.07818616926670074,0.17186814546585083],"min":[-0.25836989283561707,0,-0.1722518801689148],"type":"VEC3"},{"bufferView":13,"componentType":5126,"count":532,"type":"VEC3"},{"bufferView":14,"componentType":5126,"count":532,"type":"VEC2"},{"bufferView":15,"componentType":5123,"count":1248,"type":"SCALAR"},{"bufferView":16,"componentType":5126,"count":69,"max":[0.0812472403049469,0.0018050603102892637,0.0022361623123288155],"min":[-0.0812397375702858,-0.03967483341693878,-0.0022223254200071096],"type":"VEC3"},{"bufferView":17,"componentType":5126,"count":69,"type":"VEC3"},{"bufferView":18,"componentType":5126,"count":69,"type":"VEC2"},{"bufferView":19,"componentType":5123,"count":252,"type":"SCALAR"}],"bufferViews":[{"buffer":0,"byteOffset":0,"byteLength":3624,"target":34962},{"buffer":0,"byteOffset":3624,"byteLength":3624,"target":34962},{"buffer":0,"byteOffset":7248,"byteLength":2416,"target":34962},{"buffer":0,"byteOffset":9664,"byteLength":1620,"target":34963},{"buffer":0,"byteOffset":11284,"byteLength":1596,"target":34962},{"buffer":0,"byteOffset":12880,"byteLength":1596,"target":34962},{"buffer":0,"byteOffset":14476,"byteLength":1064,"target":34962},{"buffer":0,"byteOffset":15540,"byteLength":828,"target":34963},{"buffer":0,"byteOffset":16368,"byteLength":3972,"target":34962},{"buffer":0,"byteOffset":20340,"byteLength":3972,"target":34962},{"buffer":0,"byteOffset":24312,"byteLength":2648,"target":34962},{"buffer":0,"byteOffset":26960,"byteLength":1812,"target":34963},{"buffer":0,"byteOffset":28772,"byteLength":6384,"target":34962},{"buffer":0,"byteOffset":35156,"byteLength":6384,"target":34962},{"buffer":0,"byteOffset":41540,"byteLength":4256,"target":34962},{"buffer":0,"byteOffset":45796,"byteLength":2496,"target":34963},{"buffer":0,"byteOffset":48292,"byteLength":828,"target":34962},{"buffer":0,"byteOffset":49120,"byteLength":828,"target":34962},{"buffer":0,"byteOffset":49948,"byteLength":552,"target":34962},{"buffer":0,"byteOffset":50500,"byteLength":504,"target":34963}],"samplers":[{"magFilter":9729,"minFilter":9987}],"buffers":[{"byteLength":51004,"uri":"medical_box.bin"}]}