{"asset":{"generator":"Khronos glTF Blender I/O v5.1.20","version":"2.0","extras":{"simplified":true}},"scene":0,"scenes":[{"name":"Scene","nodes":[0,1,2]}],"nodes":[{"mesh":0,"name":"wooden_military_crate","translation":[0,0.03422325849533081,0]},{"mesh":1,"name":"wooden_military_crate_lid","translation":[0,0.4156857132911682,-0.23233745992183685]},{"mesh":2,"name":"wooden_military_crate_latch","translation":[0,0.39665794372558594,0.23507647216320038]}],"materials":[{"doubleSided":true,"name":"wooden_military_crate","normalTexture":{"index":0},"pbrMetallicRoughness":{"baseColorTexture":{"index":1},"metallicRoughnessTexture":{"index":2}}}],"meshes":[{"name":"Cube.026","primitives":[{"attributes":{"POSITION":0,"NORMAL":1,"TEXCOORD_0":2},"indices":3,"material":0}]},{"name":"Cube.029","primitives":[{"attributes":{"POSITION":4,"NORMAL":5,"TEXCOORD_0":6},"indices":7,"material":0}]},{"name":"Cube.001","primitives":[{"attributes":{"POSITION":8,"NORMAL":9,"TEXCOORD_0":10},"indices":11,"material":0}]}],"textures":[{"sampler":0,"source":0},{"sampler":0,"source":1},{"sampler":0,"source":2}],"images":[{"mimeType":"image/jpeg","name":"wooden_military_crate_nor_gl","uri":"textures/wooden_military_crate_nor_gl_2k.jpg"},{"mimeType":"image/jpeg","name":"wooden_military_crate_diff","uri":"textures/wooden_military_crate_diff_2k.jpg"},{"mimeType":"image/jpeg","name":"wooden_military_crate_metal-wooden_military_crate_rough","uri":"textures/wooden_military_crate_arm_2k.jpg"}],"accessors":[{"bufferView":0,"componentType":5126,"count":2368,"max":[0.6210327744483948,0.3839752674102783,0.25988930463790894],"min":[-0.6210327744483948,-0.03422325849533081,-0.25988930463790894],"type":"VEC3"},{"bufferView":1,"componentType":5126,"count":2368,"type":"VEC3"},{"bufferView":2,"componentType":5126,"count":2368,"type":"VEC2"},{"bufferView":3,"componentType":5123,"count":5682,"type":"SCALAR"},{"bufferView":4,"componentType":5126,"count":971,"max":[0.6001027226448059,0.04912947118282318,0.4704034924507141],"min":[-0.6001027226448059,-0.002477682661265135,-0.0024809977039694786],"type":"VEC3"},{"bufferView":5,"componentType":5126,"count":971,"type":"VEC3"},{"bufferView":6,"componentType":5126,"count":971,"type":"VEC2"},{"bufferView":7,"componentType":5123,"count":2202,"type":"SCALAR"},{"bufferView":8,"componentType":5126,"count":114,"max":[0.3935353457927704,0.041417744010686874,0.003502673003822565],"min":[-0.39254963397979736,-0.0013788547366857529,-0.0032507851719856262],"type":"VEC3"},{"bufferView":9,"componentType":5126,"count":114,"type":"VEC3"},{"bufferView":10,"componentType":5126,"count":114,"type":"VEC2"},{"bufferView":11,"componentType":5123,"count":300,"type":"SCALAR"}],"bufferViews":[{"buffer":0,"byteOffset":0,"byteLength":28416,"target":34962},{"buffer":0,"byteOffset":28416,"byteLength":28416,"target":34962},{"buffer":0,"byteOffset":56832,"byteLength":18944,"target":34962},{"buffer":0,"byteOffset":75776,"byteLength":11364,"target":34963},{"buffer":0,"byteOffset":87140,"byteLength":11652,"target":34962},{"buffer":0,"byteOffset":98792,"byteLength":11652,"target":34962},{"buffer":0,"byteOffset":110444,"byteLength":7768,"target":34962},{"buffer":0,"byteOffset":118212,"byteLength":4404,"target":34963},{"buffer":0,"byteOffset":122616,"byteLength":1368,"target":34962},{"buffer":0,"byteOffset":123984,"byteLength":1368,"target":34962},{"buffer":0,"byteOffset":125352,"byteLength":912,"target":34962},{"buffer":0,"byteOffset":126264,"byteLength":600,"target":34963}],"samplers":[{"magFilter":9729,"minFilter":9987}],"buffers":[{"byteLength":126864,"uri":"wooden_military_crate.bin"}]}