{"asset":{"generator":"Khronos glTF Blender I/O v1.6.16","version":"2.0","extras":{"simplified":true}},"scene":0,"scenes":[{"name":"Scene","nodes":[0]}],"nodes":[{"mesh":0,"name":"Barrel_02"}],"materials":[{"doubleSided":true,"name":"Barrel_02","normalTexture":{"index":0},"pbrMetallicRoughness":{"baseColorTexture":{"index":1},"metallicRoughnessTexture":{"index":2}}}],"meshes":[{"name":"Mesh","primitives":[{"attributes":{"POSITION":0,"NORMAL":1,"TEXCOORD_0":2},"indices":3,"material":0}]}],"textures":[{"sampler":0,"source":0},{"sampler":0,"source":1},{"sampler":0,"source":2}],"images":[{"mimeType":"image/jpeg","name":"Barrel_02_nor_gl","uri":"textures/Barrel_02_nor_gl_1k.jpg"},{"mimeType":"image/jpeg","name":"Barrel_02_diff","uri":"textures/Barrel_02_diff_1k.jpg"},{"mimeType":"image/jpeg","name":"Barrel_02_metallic-Barrel_02_roughness","uri":"textures/Barrel_02_arm_1k.jpg"}],"accessors":[{"bufferView":0,"componentType":5126,"count":1049,"max":[0.2440878003835678,0.8846373558044434,0.2423081248998642],"min":[-0.24408777058124542,0.004637363366782665,-0.24230831861495972],"type":"VEC3"},{"bufferView":1,"componentType":5126,"count":1049,"type":"VEC3"},{"bufferView":2,"componentType":5126,"count":1049,"type":"VEC2"},{"bufferView":3,"componentType":5123,"count":3600,"type":"SCALAR"}],"bufferViews":[{"buffer":0,"byteOffset":0,"byteLength":12588},{"buffer":0,"byteOffset":12588,"byteLength":12588},{"buffer":0,"byteOffset":25176,"byteLength":8392},{"buffer":0,"byteOffset":33568,"byteLength":7200}],"samplers":[{"magFilter":9729,"minFilter":9987}],"buffers":[{"byteLength":40768,"uri":"Barrel_02.bin"}]}