{"asset":{"generator":"Khronos glTF Blender I/O v4.0.44","version":"2.0","extras":{"simplified":true}},"scene":0,"scenes":[{"name":"Scene","nodes":[0]}],"nodes":[{"mesh":0,"name":"rock_09_LOD0"}],"materials":[{"doubleSided":true,"name":"rock_09","normalTexture":{"index":0},"pbrMetallicRoughness":{"baseColorTexture":{"index":1},"metallicFactor":0,"metallicRoughnessTexture":{"index":2}}}],"meshes":[{"name":"realCap_Model_1","primitives":[{"attributes":{"POSITION":0,"NORMAL":1,"TEXCOORD_0":2},"indices":3,"material":0}]}],"textures":[{"sampler":0,"source":0},{"sampler":0,"source":1},{"sampler":0,"source":2}],"images":[{"mimeType":"image/jpeg","name":"rock_09_nor_gl","uri":"textures/rock_09_nor_gl_2k.jpg"},{"mimeType":"image/jpeg","name":"rock_09_diff","uri":"textures/rock_09_diff_2k.jpg"},{"mimeType":"image/jpeg","name":"rock_09_rough","uri":"textures/rock_09_arm_2k.jpg"}],"accessors":[{"bufferView":0,"componentType":5126,"count":853,"max":[0.03715058043599129,0.03207876905798912,0.08355329930782318],"min":[-0.03659999743103981,-0.0004159251693636179,-0.061057448387145996],"type":"VEC3"},{"bufferView":1,"componentType":5126,"count":853,"type":"VEC3"},{"bufferView":2,"componentType":5126,"count":853,"type":"VEC2"},{"bufferView":3,"componentType":5123,"count":4200,"type":"SCALAR"}],"bufferViews":[{"buffer":0,"byteOffset":0,"byteLength":10236,"target":34962},{"buffer":0,"byteOffset":10236,"byteLength":10236,"target":34962},{"buffer":0,"byteOffset":20472,"byteLength":6824,"target":34962},{"buffer":0,"byteOffset":27296,"byteLength":8400,"target":34963}],"samplers":[{"magFilter":9729,"minFilter":9987}],"buffers":[{"byteLength":35696,"uri":"rock_09.bin"}]}