{"asset":{"generator":"Khronos glTF Blender I/O v1.6.16","version":"2.0","extras":{"simplified":true}},"scene":0,"scenes":[{"name":"Scene","nodes":[0]}],"nodes":[{"mesh":0,"name":"barrel_03"}],"materials":[{"doubleSided":true,"name":"barrel_03","normalTexture":{"index":0},"pbrMetallicRoughness":{"baseColorTexture":{"index":1},"metallicRoughnessTexture":{"index":2}}}],"meshes":[{"name":"Circle.002","primitives":[{"attributes":{"POSITION":0,"NORMAL":1,"TEXCOORD_0":2},"indices":3,"material":0}]}],"textures":[{"sampler":0,"source":0},{"sampler":0,"source":1},{"sampler":0,"source":2}],"images":[{"mimeType":"image/jpeg","name":"barrel_03_nor_gl","uri":"textures/barrel_03_nor_gl_1k.jpg"},{"mimeType":"image/jpeg","name":"barrel_03_diff","uri":"textures/barrel_03_diff_1k.jpg"},{"mimeType":"image/jpeg","name":"barrel_03_metal-barrel_03_rough","uri":"textures/barrel_03_arm_1k.jpg"}],"accessors":[{"bufferView":0,"componentType":5126,"count":785,"max":[0.3169717788696289,0.927638053894043,0.3193000555038452],"min":[-0.31697171926498413,-1.1793932941372987e-7,-0.31929945945739746],"type":"VEC3"},{"bufferView":1,"componentType":5126,"count":785,"type":"VEC3"},{"bufferView":2,"componentType":5126,"count":785,"type":"VEC2"},{"bufferView":3,"componentType":5123,"count":2697,"type":"SCALAR"}],"bufferViews":[{"buffer":0,"byteOffset":0,"byteLength":9420},{"buffer":0,"byteOffset":9420,"byteLength":9420},{"buffer":0,"byteOffset":18840,"byteLength":6280},{"buffer":0,"byteOffset":25120,"byteLength":5394}],"samplers":[{"magFilter":9729,"minFilter":9987}],"buffers":[{"byteLength":30514,"uri":"barrel_03.bin"}]}