{"asset":{"generator":"Khronos glTF Blender I/O v4.2.60","version":"2.0","extras":{"simplified":true}},"scene":0,"scenes":[{"name":"Scene","nodes":[0,1,2,3,4]}],"nodes":[{"mesh":0,"name":"wild_rooibos_bush_a","translation":[1.600000023841858,0,0]},{"mesh":1,"name":"wild_rooibos_bush_b","translation":[0.9999999403953552,0,0]},{"mesh":2,"name":"wild_rooibos_bush_c","translation":[0.4999999403953552,0,0]},{"mesh":3,"name":"wild_rooibos_bush_d","translation":[0.09999997168779373,0,0]},{"mesh":4,"name":"wild_rooibos_bush_e","translation":[-0.2000000923871994,0,0]}],"materials":[{"alphaMode":"BLEND","doubleSided":true,"name":"wild_rooibos_bush_twigs","normalTexture":{"index":0},"pbrMetallicRoughness":{"baseColorTexture":{"index":1},"metallicFactor":0,"metallicRoughnessTexture":{"index":2}}},{"alphaMode":"BLEND","doubleSided":true,"name":"wild_rooibos_bush_leaves","normalTexture":{"index":3},"pbrMetallicRoughness":{"baseColorTexture":{"index":4},"metallicFactor":0,"metallicRoughnessTexture":{"index":5}}},{"doubleSided":true,"name":"wild_rooibos_bush","normalTexture":{"index":6},"pbrMetallicRoughness":{"baseColorTexture":{"index":7},"metallicFactor":0,"metallicRoughnessTexture":{"index":8}}}],"meshes":[{"name":"Plane.012","primitives":[{"attributes":{"POSITION":0,"NORMAL":1,"TEXCOORD_0":2},"indices":3,"material":0},{"attributes":{"POSITION":4,"NORMAL":5,"TEXCOORD_0":6},"indices":7,"material":1},{"attributes":{"POSITION":8,"NORMAL":9,"TEXCOORD_0":10},"indices":11,"material":2}]},{"name":"Plane.001","primitives":[{"attributes":{"POSITION":12,"NORMAL":13,"TEXCOORD_0":14},"indices":15,"material":0},{"attributes":{"POSITION":16,"NORMAL":17,"TEXCOORD_0":18},"indices":19,"material":1},{"attributes":{"POSITION":20,"NORMAL":21,"TEXCOORD_0":22},"indices":23,"material":2}]},{"name":"Plane.050","primitives":[{"attributes":{"POSITION":24,"NORMAL":25,"TEXCOORD_0":26},"indices":27,"material":0},{"attributes":{"POSITION":28,"NORMAL":29,"TEXCOORD_0":30},"indices":31,"material":1},{"attributes":{"POSITION":32,"NORMAL":33,"TEXCOORD_0":34},"indices":35,"material":2}]},{"name":"Plane.003","primitives":[{"attributes":{"POSITION":36,"NORMAL":37,"TEXCOORD_0":38},"indices":39,"material":0},{"attributes":{"POSITION":40,"NORMAL":41,"TEXCOORD_0":42},"indices":43,"material":1},{"attributes":{"POSITION":44,"NORMAL":45,"TEXCOORD_0":46},"indices":47,"material":2}]},{"name":"Plane.014","primitives":[{"attributes":{"POSITION":48,"NORMAL":49,"TEXCOORD_0":50},"indices":51,"material":0},{"attributes":{"POSITION":52,"NORMAL":53,"TEXCOORD_0":54},"indices":55,"material":1},{"attributes":{"POSITION":56,"NORMAL":57,"TEXCOORD_0":58},"indices":59,"material":2}]}],"textures":[{"sampler":0,"source":0},{"sampler":0,"source":1},{"sampler":0,"source":2},{"sampler":0,"source":0},{"sampler":0,"source":3},{"sampler":0,"source":2},{"sampler":0,"source":0},{"sampler":0,"source":4},{"sampler":0,"source":2}],"images":[{"mimeType":"image/jpeg","name":"wild_rooibos_bush_nor_gl","uri":"textures/wild_rooibos_bush_nor_gl_1k.jpg"},{"mimeType":"image/jpeg","name":"wild_rooibos_bush_diff-wild_rooibos_bush_alpha","uri":"textures/wild_rooibos_bush_diff_1k.jpg"},{"mimeType":"image/jpeg","name":"wild_rooibos_bush_rough","uri":"textures/wild_rooibos_bush_arm_1k.jpg"},{"mimeType":"image/jpeg","name":"wild_rooibos_bush_diff-wild_rooibos_bush_alpha","uri":"textures/wild_rooibos_bush_diff_1k.jpg"},{"mimeType":"image/jpeg","name":"wild_rooibos_bush_diff","uri":"textures/wild_rooibos_bush_diff_1k.jpg"}],"accessors":[{"bufferView":0,"componentType":5126,"count":2629,"max":[0.3463645279407501,0.5374173521995544,0.22051919996738434],"min":[-0.2657468318939209,-0.0015793213387951255,-0.5369825959205627],"type":"VEC3"},{"bufferView":1,"componentType":5126,"count":2629,"type":"VEC3"},{"bufferView":2,"componentType":5126,"count":2629,"type":"VEC2"},{"bufferView":3,"componentType":5123,"count":7149,"type":"SCALAR"},{"bufferView":4,"componentType":5126,"count":9902,"max":[0.3333894908428192,0.5308821201324463,0.3064473271369934],"min":[-0.35020989179611206,0.0853182002902031,-0.4403901994228363],"type":"VEC3"},{"bufferView":5,"componentType":5126,"count":9902,"type":"VEC3"},{"bufferView":6,"componentType":5126,"count":9902,"type":"VEC2"},{"bufferView":7,"componentType":5123,"count":19740,"type":"SCALAR"},{"bufferView":8,"componentType":5126,"count":1092,"max":[0.26621726155281067,0.4550364315509796,0.2212180644273758],"min":[-0.2586897015571594,-0.0020769955590367317,-0.38285186886787415],"type":"VEC3"},{"bufferView":9,"componentType":5126,"count":1092,"type":"VEC3"},{"bufferView":10,"componentType":5126,"count":1092,"type":"VEC2"},{"bufferView":11,"componentType":5123,"count":2046,"type":"SCALAR"},{"bufferView":12,"componentType":5126,"count":1195,"max":[0.19954192638397217,0.5389080047607422,0.1336807757616043],"min":[-0.15986959636211395,-0.002358302241191268,-0.16051532328128815],"type":"VEC3"},{"bufferView":13,"componentType":5126,"count":1195,"type":"VEC3"},{"bufferView":14,"componentType":5126,"count":1195,"type":"VEC2"},{"bufferView":15,"componentType":5123,"count":3201,"type":"SCALAR"},{"bufferView":16,"componentType":5126,"count":4020,"max":[0.28919631242752075,0.48710229992866516,0.21430246531963348],"min":[-0.23512272536754608,0.015894409269094467,-0.26039257645606995],"type":"VEC3"},{"bufferView":17,"componentType":5126,"count":4020,"type":"VEC3"},{"bufferView":18,"componentType":5126,"count":4020,"type":"VEC2"},{"bufferView":19,"componentType":5123,"count":8004,"type":"SCALAR"},{"bufferView":20,"componentType":5126,"count":664,"max":[0.20550142228603363,0.41735053062438965,0.14245550334453583],"min":[-0.14387236535549164,-0.0014731751289218664,-0.20159058272838593],"type":"VEC3"},{"bufferView":21,"componentType":5126,"count":664,"type":"VEC3"},{"bufferView":22,"componentType":5126,"count":664,"type":"VEC2"},{"bufferView":23,"componentType":5123,"count":1302,"type":"SCALAR"},{"bufferView":24,"componentType":5126,"count":786,"max":[0.1742214858531952,0.4352923333644867,0.2273455560207367],"min":[-0.13228006660938263,-0.0019698990508913994,-0.13268354535102844],"type":"VEC3"},{"bufferView":25,"componentType":5126,"count":786,"type":"VEC3"},{"bufferView":26,"componentType":5126,"count":786,"type":"VEC2"},{"bufferView":27,"componentType":5123,"count":2124,"type":"SCALAR"},{"bufferView":28,"componentType":5126,"count":3078,"max":[0.2216089963912964,0.44638144969940186,0.23094896972179413],"min":[-0.20375770330429077,0.10643316805362701,-0.24115999042987823],"type":"VEC3"},{"bufferView":29,"componentType":5126,"count":3078,"type":"VEC3"},{"bufferView":30,"componentType":5126,"count":3078,"type":"VEC2"},{"bufferView":31,"componentType":5123,"count":6132,"type":"SCALAR"},{"bufferView":32,"componentType":5126,"count":398,"max":[0.17807242274284363,0.3633800446987152,0.15628546476364136],"min":[-0.11535310745239258,-0.001054758089594543,-0.15388216078281403],"type":"VEC3"},{"bufferView":33,"componentType":5126,"count":398,"type":"VEC3"},{"bufferView":34,"componentType":5126,"count":398,"type":"VEC2"},{"bufferView":35,"componentType":5123,"count":744,"type":"SCALAR"},{"bufferView":36,"componentType":5126,"count":426,"max":[0.15243381261825562,0.4187602996826172,0.04335016384720802],"min":[-0.048259392380714417,-0.001182745909318328,-0.09987573325634003],"type":"VEC3"},{"bufferView":37,"componentType":5126,"count":426,"type":"VEC3"},{"bufferView":38,"componentType":5126,"count":426,"type":"VEC2"},{"bufferView":39,"componentType":5123,"count":1140,"type":"SCALAR"},{"bufferView":40,"componentType":5126,"count":2064,"max":[0.1857093870639801,0.40338897705078125,0.15862591564655304],"min":[-0.14171560108661652,0.09774372726678848,-0.2249242514371872],"type":"VEC3"},{"bufferView":41,"componentType":5126,"count":2064,"type":"VEC3"},{"bufferView":42,"componentType":5126,"count":2064,"type":"VEC2"},{"bufferView":43,"componentType":5123,"count":4104,"type":"SCALAR"},{"bufferView":44,"componentType":5126,"count":229,"max":[0.10924869030714035,0.3248371481895447,0.09676612913608551],"min":[-0.06957267969846725,-0.0005998905980959535,-0.13153478503227234],"type":"VEC3"},{"bufferView":45,"componentType":5126,"count":229,"type":"VEC3"},{"bufferView":46,"componentType":5126,"count":229,"type":"VEC2"},{"bufferView":47,"componentType":5123,"count":474,"type":"SCALAR"},{"bufferView":48,"componentType":5126,"count":175,"max":[0.07541955262422562,0.23675090074539185,0.09434915333986282],"min":[-0.029732363298535347,-0.0009769063908606768,-0.036294981837272644],"type":"VEC3"},{"bufferView":49,"componentType":5126,"count":175,"type":"VEC3"},{"bufferView":50,"componentType":5126,"count":175,"type":"VEC2"},{"bufferView":51,"componentType":5123,"count":459,"type":"SCALAR"},{"bufferView":52,"componentType":5126,"count":840,"max":[0.14504429697990417,0.30518728494644165,0.12062276154756546],"min":[-0.13257183134555817,0.09413501620292664,-0.04508111625909805],"type":"VEC3"},{"bufferView":53,"componentType":5126,"count":840,"type":"VEC3"},{"bufferView":54,"componentType":5126,"count":840,"type":"VEC2"},{"bufferView":55,"componentType":5123,"count":1668,"type":"SCALAR"},{"bufferView":56,"componentType":5126,"count":171,"max":[0.06685052812099457,0.2568061053752899,0.09182773530483246],"min":[-0.10178651660680771,-0.00048554138629697263,-0.03057798370718956],"type":"VEC3"},{"bufferView":57,"componentType":5126,"count":171,"type":"VEC3"},{"bufferView":58,"componentType":5126,"count":171,"type":"VEC2"},{"bufferView":59,"componentType":5123,"count":492,"type":"SCALAR"}],"bufferViews":[{"buffer":0,"byteOffset":0,"byteLength":31548,"target":34962},{"buffer":0,"byteOffset":31548,"byteLength":31548,"target":34962},{"buffer":0,"byteOffset":63096,"byteLength":21032,"target":34962},{"buffer":0,"byteOffset":84128,"byteLength":14298,"target":34963},{"buffer":0,"byteOffset":98428,"byteLength":118824,"target":34962},{"buffer":0,"byteOffset":217252,"byteLength":118824,"target":34962},{"buffer":0,"byteOffset":336076,"byteLength":79216,"target":34962},{"buffer":0,"byteOffset":415292,"byteLength":39480,"target":34963},{"buffer":0,"byteOffset":454772,"byteLength":13104,"target":34962},{"buffer":0,"byteOffset":467876,"byteLength":13104,"target":34962},{"buffer":0,"byteOffset":480980,"byteLength":8736,"target":34962},{"buffer":0,"byteOffset":489716,"byteLength":4092,"target":34963},{"buffer":0,"byteOffset":493808,"byteLength":14340,"target":34962},{"buffer":0,"byteOffset":508148,"byteLength":14340,"target":34962},{"buffer":0,"byteOffset":522488,"byteLength":9560,"target":34962},{"buffer":0,"byteOffset":532048,"byteLength":6402,"target":34963},{"buffer":0,"byteOffset":538452,"byteLength":48240,"target":34962},{"buffer":0,"byteOffset":586692,"byteLength":48240,"target":34962},{"buffer":0,"byteOffset":634932,"byteLength":32160,"target":34962},{"buffer":0,"byteOffset":667092,"byteLength":16008,"target":34963},{"buffer":0,"byteOffset":683100,"byteLength":7968,"target":34962},{"buffer":0,"byteOffset":691068,"byteLength":7968,"target":34962},{"buffer":0,"byteOffset":699036,"byteLength":5312,"target":34962},{"buffer":0,"byteOffset":704348,"byteLength":2604,"target":34963},{"buffer":0,"byteOffset":706952,"byteLength":9432,"target":34962},{"buffer":0,"byteOffset":716384,"byteLength":9432,"target":34962},{"buffer":0,"byteOffset":725816,"byteLength":6288,"target":34962},{"buffer":0,"byteOffset":732104,"byteLength":4248,"target":34963},{"buffer":0,"byteOffset":736352,"byteLength":36936,"target":34962},{"buffer":0,"byteOffset":773288,"byteLength":36936,"target":34962},{"buffer":0,"byteOffset":810224,"byteLength":24624,"target":34962},{"buffer":0,"byteOffset":834848,"byteLength":12264,"target":34963},{"buffer":0,"byteOffset":847112,"byteLength":4776,"target":34962},{"buffer":0,"byteOffset":851888,"byteLength":4776,"target":34962},{"buffer":0,"byteOffset":856664,"byteLength":3184,"target":34962},{"buffer":0,"byteOffset":859848,"byteLength":1488,"target":34963},{"buffer":0,"byteOffset":861336,"byteLength":5112,"target":34962},{"buffer":0,"byteOffset":866448,"byteLength":5112,"target":34962},{"buffer":0,"byteOffset":871560,"byteLength":3408,"target":34962},{"buffer":0,"byteOffset":874968,"byteLength":2280,"target":34963},{"buffer":0,"byteOffset":877248,"byteLength":24768,"target":34962},{"buffer":0,"byteOffset":902016,"byteLength":24768,"target":34962},{"buffer":0,"byteOffset":926784,"byteLength":16512,"target":34962},{"buffer":0,"byteOffset":943296,"byteLength":8208,"target":34963},{"buffer":0,"byteOffset":951504,"byteLength":2748,"target":34962},{"buffer":0,"byteOffset":954252,"byteLength":2748,"target":34962},{"buffer":0,"byteOffset":957000,"byteLength":1832,"target":34962},{"buffer":0,"byteOffset":958832,"byteLength":948,"target":34963},{"buffer":0,"byteOffset":959780,"byteLength":2100,"target":34962},{"buffer":0,"byteOffset":961880,"byteLength":2100,"target":34962},{"buffer":0,"byteOffset":963980,"byteLength":1400,"target":34962},{"buffer":0,"byteOffset":965380,"byteLength":918,"target":34963},{"buffer":0,"byteOffset":966300,"byteLength":10080,"target":34962},{"buffer":0,"byteOffset":976380,"byteLength":10080,"target":34962},{"buffer":0,"byteOffset":986460,"byteLength":6720,"target":34962},{"buffer":0,"byteOffset":993180,"byteLength":3336,"target":34963},{"buffer":0,"byteOffset":996516,"byteLength":2052,"target":34962},{"buffer":0,"byteOffset":998568,"byteLength":2052,"target":34962},{"buffer":0,"byteOffset":1000620,"byteLength":1368,"target":34962},{"buffer":0,"byteOffset":1001988,"byteLength":984,"target":34963}],"samplers":[{"magFilter":9729,"minFilter":9987}],"buffers":[{"byteLength":1002972,"uri":"wild_rooibos_bush.bin"}]}