{"asset":{"generator":"Khronos glTF Blender I/O v3.6.27","version":"2.0","extras":{"simplified":true}},"scene":0,"scenes":[{"name":"Scene","nodes":[0]}],"nodes":[{"mesh":0,"name":"utility_box_02"}],"materials":[{"doubleSided":true,"name":"utility_box_02","normalTexture":{"index":0},"pbrMetallicRoughness":{"baseColorTexture":{"index":1},"metallicRoughnessTexture":{"index":2}}}],"meshes":[{"name":"Cube.016","primitives":[{"attributes":{"POSITION":0,"NORMAL":1,"TEXCOORD_0":2},"indices":3,"material":0}]}],"textures":[{"sampler":0,"source":0},{"sampler":0,"source":1},{"sampler":0,"source":2}],"images":[{"mimeType":"image/jpeg","name":"utility_box_02_nor_gl","uri":"textures/utility_box_02_nor_gl_1k.jpg"},{"mimeType":"image/jpeg","name":"utility_box_02_diff","uri":"textures/utility_box_02_diff_1k.jpg"},{"mimeType":"image/jpeg","name":"utility_box_02_metal-utility_box_02_rough","uri":"textures/utility_box_02_arm_1k.jpg"}],"accessors":[{"bufferView":0,"componentType":5126,"count":2754,"max":[0.4600001573562622,1.1203334331512451,0.22200000286102295],"min":[-0.46000003814697266,0,-0.20999999344348907],"type":"VEC3"},{"bufferView":1,"componentType":5126,"count":2754,"type":"VEC3"},{"bufferView":2,"componentType":5126,"count":2754,"type":"VEC2"},{"bufferView":3,"componentType":5123,"count":7800,"type":"SCALAR"}],"bufferViews":[{"buffer":0,"byteOffset":0,"byteLength":33048,"target":34962},{"buffer":0,"byteOffset":33048,"byteLength":33048,"target":34962},{"buffer":0,"byteOffset":66096,"byteLength":22032,"target":34962},{"buffer":0,"byteOffset":88128,"byteLength":15600,"target":34963}],"samplers":[{"magFilter":9729,"minFilter":9987}],"buffers":[{"byteLength":103728,"uri":"utility_box_02.bin"}]}